<?xml version="1.0" encoding="UTF-8"?>
<svg version="1.1" xmlns="http://www.w3.org/2000/svg" width="1536" height="1024">
<path d="M0 0 C506.88 0 1013.76 0 1536 0 C1536 337.92 1536 675.84 1536 1024 C1029.12 1024 522.24 1024 0 1024 C0 686.08 0 348.16 0 0 Z " fill="#000000" transform="translate(0,0)"/>
<path d="M0 0 C32.67 0 65.34 0 99 0 C99 8.10146158 98.62968462 13.16228998 93.0234375 19.08984375 C90.47505779 21.35558498 88.05873229 23.47063386 85 25 C84.87884473 36.66538488 85.17662354 48.20789401 85.98828125 59.84375 C86.09288158 61.40918334 86.19691025 62.97465497 86.30041504 64.54016113 C86.51908677 67.83266718 86.74118995 71.12491446 86.96621704 74.41699219 C87.3176352 79.5614172 87.6601572 84.70640958 88.00073242 89.8515625 C88.11537051 91.58251961 88.23000979 93.31347664 88.34465027 95.04443359 C88.40123495 95.89906189 88.45781963 96.75369019 88.516119 97.63421631 C88.68710042 100.21272415 88.85879749 102.79118338 89.03071594 105.36962891 C89.93013271 118.86722757 90.80168571 132.36620106 91.62167358 145.86889648 C91.74719109 147.92840333 91.87428295 149.98781493 92.00308228 152.04711914 C92.64929541 162.38738822 93.14828391 172.63573503 93 183 C98.28 183 103.56 183 109 183 C109.33 189.93 109.66 196.86 110 204 C75.02 204 40.04 204 4 204 C3.75 165.125 3.75 165.125 3.70214844 152.90283203 C3.66888097 149.25056866 3.66888097 149.25056866 3.63043213 145.59835815 C3.61592938 143.98634621 3.60905087 142.37425359 3.60845947 140.76217651 C3.86691344 126.16362438 3.86691344 126.16362438 -2.3760376 113.37210083 C-8.28515378 107.96309044 -15.10514618 107.57210755 -22.73046875 107.66796875 C-27.40480302 108.14266219 -30.91793927 109.79992831 -35 112 C-35.99 112.33 -36.98 112.66 -38 113 C-39.11515834 114.84475432 -39.11515834 114.84475432 -40 117 C-40.51920013 117.90134926 -40.51920013 117.90134926 -41.04888916 118.82090759 C-44.84125689 126.02483421 -44.60471488 133.38731348 -44.609375 141.31640625 C-44.62438078 142.78329777 -44.6411129 144.25017254 -44.65948486 145.71702576 C-44.7029025 149.54905029 -44.72309999 153.38084703 -44.73822021 157.21307373 C-44.75788447 161.13502328 -44.79984348 165.0567301 -44.83984375 168.97851562 C-44.9148683 176.65230879 -44.96326217 184.32591053 -45 192 C-53.58 192 -62.16 192 -71 192 C-71 157.02 -71 122.04 -71 86 C-62.42 86 -53.84 86 -45 86 C-45 89.96 -45 93.92 -45 98 C-43.96552734 97.20335937 -43.96552734 97.20335937 -42.91015625 96.390625 C-32.27485582 88.39591356 -24.07564844 84.82374664 -10.875 84.75 C-9.97523438 84.729375 -9.07546875 84.70875 -8.1484375 84.6875 C2.13598916 84.6283941 10.3323953 87.02794475 18 94 C18.54527344 94.49113281 19.09054687 94.98226562 19.65234375 95.48828125 C27.51533548 103.5513491 30.13545927 115.54128558 30.11352539 126.46435547 C30.11341209 128.35563675 30.11341209 128.35563675 30.11329651 130.28512573 C30.10819109 131.6458134 30.10297511 133.00650065 30.09765625 134.3671875 C30.09578912 135.77108713 30.09436661 137.17498742 30.09336853 138.57888794 C30.08956658 142.25807522 30.07975633 145.93722248 30.06866455 149.61639404 C30.05840031 153.37706969 30.0538602 157.13775186 30.04882812 160.8984375 C30.03813179 168.26564528 30.02055401 175.63281191 30 183 C36.6 183 43.2 183 50 183 C50 153.63 50 124.26 50 94 C54.62 91.69 59.24 89.38 64 87 C64.04963764 76.66916665 63.87731756 66.38774416 63.5 56.0625 C63.45158354 54.68555527 63.4034056 53.30860213 63.35546875 51.93164062 C63.23930606 48.62100397 63.12078961 45.3104705 63 42 C62.44989258 42.24532471 61.89978516 42.49064941 61.33300781 42.7434082 C49.19794948 48.13496931 36.98707337 53.27982614 24.625 58.125 C24.00032837 58.37037506 23.37565674 58.61575012 22.73205566 58.86856079 C12.19786634 63 12.19786634 63 11 63 C11.11897553 60.58291817 11.24557627 58.16652977 11.375 55.75 C11.42901978 54.62307739 11.42901978 54.62307739 11.48413086 53.47338867 C11.71865679 49.14507736 12.12579829 44.91320992 12.79296875 40.62890625 C12.91945801 39.74299805 13.04594727 38.85708984 13.17626953 37.94433594 C13.42979176 36.21679507 13.71755175 34.49386463 14.04248047 32.77832031 C14.38889672 30.29156445 14.56340386 28.45126579 14 26 C12.15867694 23.99628621 10.31018448 22.66096909 7.99731445 21.23535156 C3.7986387 18.63844418 1.25339431 14.70022865 0 10 C0 6.7 0 3.4 0 0 Z " fill="#0051C7" transform="translate(863,436)"/>
<path d="M0 0 C8.25 0 16.5 0 25 0 C25 18.81 25 37.62 25 57 C28.63 54.69 32.26 52.38 36 50 C48.1845296 44.53796949 63.74607964 43.64846336 76.5546875 47.96484375 C91.29520801 54.20484045 99.93081428 63.27791842 106.25 77.9375 C112.01660617 93.31511646 111.50012325 110.60133488 104.69238281 125.58276367 C97.77798017 139.6667342 88.22753955 147.06298372 73.640625 152.23828125 C60.30258383 156.08579313 45.1741268 155.09769301 32.9375 148.4375 C30.57205429 147.02351848 28.29438034 145.52958689 26 144 C26 143.34 26 142.68 26 142 C25.34 142 24.68 142 24 142 C24 145.63 24 149.26 24 153 C16.08 153 8.16 153 0 153 C0 102.51 0 52.02 0 0 Z " fill="#0053C7" transform="translate(310,475)"/>
<path d="M0 0 C11.09167669 8.7740129 16.95900311 22.86099687 18.74609375 36.578125 C19.9056461 52.20532289 16.17774719 67.33110889 5.96484375 79.40625 C-5.14573047 91.16347139 -19.27393757 97.01758211 -35.31494141 97.54248047 C-44.8678672 97.60905704 -53.14653558 96.81135688 -62 93 C-62.72832031 92.71125 -63.45664062 92.4225 -64.20703125 92.125 C-76.43821268 86.72108552 -84.5547555 76.96611896 -89.8125 64.9375 C-96.04754776 48.79610991 -95.42737316 32.72238613 -88.47265625 16.88671875 C-81.9679905 4.13619359 -71.24884631 -4.0883852 -58 -9 C-38.29241083 -15.17448073 -16.76989421 -11.64027951 0 0 Z " fill="#0053C8" transform="translate(755,532)"/>
<path d="M0 0 C8.93526701 7.25424716 15.67606778 16.72886468 17.7578125 28.2421875 C18.10930309 32.24464491 18.20916859 36.23331001 18.25 40.25 C18.25950684 41.03133301 18.26901367 41.81266602 18.27880859 42.61767578 C18.27228271 43.74278564 18.27228271 43.74278564 18.265625 44.890625 C18.26336914 45.56125977 18.26111328 46.23189453 18.25878906 46.92285156 C18 49 18 49 16 54 C-8.42 54 -32.84 54 -58 54 C-52.95507941 66.61208151 -52.95507941 66.61208151 -42.91796875 74.05078125 C-31.14425723 78.80078724 -20.67924871 77.14424954 -9 73 C-4.90460704 71.16289812 -0.93324865 69.16112563 3 67 C4.3410005 69.4335567 5.67294856 71.87135301 7 74.3125 C7.3815625 75.00279297 7.763125 75.69308594 8.15625 76.40429688 C11 81.66015625 11 81.66015625 11 85 C-1.09201596 96.28944853 -17.66660658 99.58879337 -33.6875 99.2421875 C-48.85644765 98.13313708 -63.733983 92.59528215 -74 81 C-81.30543074 71.70085609 -85.25188861 60.78275437 -86 49 C-86.06316406 48.13375 -86.12632812 47.2675 -86.19140625 46.375 C-86.80243335 31.55266515 -81.67923486 17.82577108 -72.5 6.3125 C-54.43613747 -12.8889722 -21.25187702 -14.71762493 0 0 Z " fill="#0053C8" transform="translate(520,530)"/>
<path d="M0 0 C8.58 0 17.16 0 26 0 C26.33 30.03 26.66 60.06 27 91 C36.7082699 80.49052709 36.7082699 80.49052709 45.8515625 69.6171875 C48.63700967 66.2240064 51.58135148 62.99515133 54.56640625 59.77734375 C57.00815567 57.16505482 57.00815567 57.16505482 58.47802734 54.48730469 C61.35620637 49.99953921 63.29082805 47.37812322 68.64282227 46.1940918 C72.94163286 45.8935641 77.20438825 46.1251455 81.5 46.375 C83.00506 46.42523348 84.51028164 46.47084822 86.015625 46.51171875 C89.68047639 46.62120266 93.33919465 46.7933006 97 47 C90.87197657 54.16428886 90.87197657 54.16428886 87.875 57.5625 C85.67534158 60.0660586 83.49783232 62.58614594 81.34375 65.12890625 C80.35427802 66.29436538 79.36469078 67.45972666 78.375 68.625 C77.87315186 69.21788818 77.37130371 69.81077637 76.85424805 70.42163086 C74.08759706 73.66157601 71.25954945 76.80882287 68.30078125 79.875 C67.69766113 80.50325684 67.09454102 81.13151367 66.47314453 81.77880859 C65.30140884 82.990275 64.11904256 84.1915673 62.92529297 85.38134766 C61.12555123 87.18817573 61.12555123 87.18817573 59 90 C59.48748097 94.49068357 62.50480549 97.60974926 65.1875 101.0625 C66.28862697 102.50454706 67.38885082 103.94728407 68.48828125 105.390625 C69.06529785 106.14537109 69.64231445 106.90011719 70.23681641 107.67773438 C73.15801327 111.52520386 76.01595611 115.41874302 78.875 119.3125 C80.04546232 120.90502921 81.21603645 122.49747625 82.38671875 124.08984375 C82.97501465 124.89019043 83.56331055 125.69053711 84.16943359 126.51513672 C86.07262954 129.09858942 87.98277788 131.67678073 89.89453125 134.25390625 C90.52955566 135.11137451 91.16458008 135.96884277 91.81884766 136.85229492 C93.03422712 138.49307308 94.25126161 140.13262704 95.47021484 141.77075195 C96.02016113 142.51413818 96.57010742 143.25752441 97.13671875 144.0234375 C97.61842529 144.67231934 98.10013184 145.32120117 98.59643555 145.98974609 C100.18316561 148.26233877 101.59770438 150.61005911 103 153 C75.67869043 155.51075037 75.67869043 155.51075037 68.61425781 151.71972656 C64.99095889 148.26808985 63.113778 143.9207659 61.15332031 139.38330078 C59.06307372 135.0638708 56.0748517 131.37449602 53.1875 127.5625 C48.96243053 121.81104934 44.91692279 115.9657747 41 110 C35.09932873 112.61430848 30.62036107 116.6913368 27 122 C25.68479602 127.42148407 25.7272181 132.57808294 25.875 138.125 C25.87694613 139.5729177 25.87437474 141.02084883 25.8671875 142.46875 C25.85109731 145.98445663 25.92730311 149.4806154 26 153 C17.42 153 8.84 153 0 153 C0 102.51 0 52.02 0 0 Z " fill="#0052C7" transform="translate(559,475)"/>
<path d="M0 0 C3.35956073 1.64563849 5.44989483 3.92254227 7.1628418 7.27758789 C8.14377548 10.46755333 8.00447055 13.04450361 7.89453125 16.37109375 C8.15885912 20.4392201 8.29940471 22.30585332 11.22802734 25.20751953 C14.30752785 27.0763116 17.39616893 28.5994737 20.6875 30.0625 C22.8589031 31.11417306 25.02950101 32.1675105 27.19921875 33.22265625 C28.21443604 33.70162354 29.22965332 34.18059082 30.27563477 34.67407227 C38.55156731 38.70190537 38.55156731 38.70190537 40.1875 43.4375 C40 47 40 47 37.875 49.9375 C34.82477699 52.12570346 33.64336355 52.52048051 30 52 C28.79432942 60.82469811 28.66384216 69.67169542 28.4375 78.5625 C28.293125 83.986875 28.14875 89.41125 28 95 C5.89 95 -16.22 95 -39 95 C-39 80.81 -39 66.62 -39 52 C-40.98 52 -42.96 52 -45 52 C-48.2763916 49.84447921 -48.89276345 48.44544412 -49.8125 44.625 C-49 41 -49 41 -47.33642578 39.55761719 C-46.6092334 39.10032227 -45.88204102 38.64302734 -45.1328125 38.171875 C-43.9099353 37.3986792 -43.9099353 37.3986792 -42.66235352 36.60986328 C-38.16170912 33.88842824 -33.63336186 31.22682579 -29.0625 28.625 C-28.11826172 28.07972656 -27.17402344 27.53445313 -26.20117188 26.97265625 C-25.30076172 26.45832031 -24.40035156 25.94398438 -23.47265625 25.4140625 C-22.66062744 24.9495166 -21.84859863 24.4849707 -21.01196289 24.00634766 C-19 23 -19 23 -17 23 C-17.05800781 21.91460937 -17.11601563 20.82921875 -17.17578125 19.7109375 C-17.22270558 18.26566824 -17.26820287 16.82035216 -17.3125 15.375 C-17.35439453 14.66214844 -17.39628906 13.94929688 -17.43945312 13.21484375 C-17.53230532 9.16648804 -17.20712546 6.73595687 -14.60546875 3.5390625 C-10.17574314 -0.77776156 -5.99611071 -0.8184875 0 0 Z " fill="#FDD800" transform="translate(917,341)"/>
<path d="M0 0 C1.23169922 0.40025391 1.23169922 0.40025391 2.48828125 0.80859375 C17.52590037 6.07059111 28.47780327 17.64395933 35.38549805 31.67797852 C38.67734714 38.89501731 40.10647572 46.15780628 41 54 C41.10183594 54.7940625 41.20367188 55.588125 41.30859375 56.40625 C42.26480097 71.47375776 35.15128759 87.32773231 25.5625 98.4375 C13.06974312 111.45604631 -2.09942004 117.73149596 -20.14208984 118.35180664 C-36.33950914 118.53547277 -51.36714846 112.82075641 -63.69140625 102.27734375 C-75.61242208 90.51769531 -81.97802304 76.63352883 -82.29272461 59.9543457 C-82.41139751 41.85013581 -78.69562964 27.87117958 -65.9375 14.25 C-48.67836054 -2.08959514 -22.61385103 -8.75008306 0 0 Z M-55.8125 25.75 C-65.03244996 36.97050514 -67.33835145 50.91821514 -66 65 C-63.89039222 76.44493802 -58.44714127 87.06054114 -49.296875 94.4375 C-38.1663929 102.00925653 -26.37673093 105.83908427 -12.98046875 103.46484375 C-0.05650839 100.48989438 9.65305327 94.52957588 17.4375 83.5 C24.0792517 72.730606 25.59516627 59.4328336 23.50390625 47.06640625 C20.30139162 34.31062765 14.23274937 24.60429071 3.22265625 17.109375 C-16.344759 5.80253758 -40.25664486 9.42471546 -55.8125 25.75 Z " fill="#4B4D52" transform="translate(1089,515)"/>
<path d="M0 0 C0 4.37451315 -0.40377603 5.00472003 -3 8.25 C-3.556875 8.95640625 -4.11375 9.6628125 -4.6875 10.390625 C-5.120625 10.92171875 -5.55375 11.4528125 -6 12 C-10.7534169 10.11789202 -15.45515914 8.12056919 -20.16015625 6.12109375 C-28.35877082 2.88450175 -38.68597823 2.49468492 -47.19921875 4.90625 C-52.21741389 7.24657419 -55.82021329 9.74869565 -58 15 C-58.73685612 19.80524258 -58.49855053 23.70376862 -56.75 28.25 C-49.31429083 35.68570917 -38.62663108 38.18628759 -28.87475586 41.32177734 C-15.41564396 45.72394039 -2.84439567 50.83011414 4.0546875 63.8515625 C7.33245348 71.30103064 7.19260792 80.62268703 4.5625 88.25 C0.20797444 97.6976279 -7.69710574 103.28586261 -17.15136719 106.79956055 C-23.93230138 109.05112021 -30.19653881 109.50582885 -37.3125 109.4375 C-38.41609863 109.42992676 -39.51969727 109.42235352 -40.65673828 109.41455078 C-56.31892922 109.09783932 -69.474728 103.75692053 -81 93 C-80.39665691 89.29496359 -78.77525763 87.14031852 -76.4375 84.25 C-75.79683594 83.45078125 -75.15617187 82.6515625 -74.49609375 81.828125 C-74.00238281 81.22484375 -73.50867187 80.6215625 -73 80 C-72.21625 80.53625 -71.4325 81.0725 -70.625 81.625 C-69.41786897 82.41849872 -68.20936666 83.20991276 -67 84 C-66.28457031 84.48210937 -65.56914063 84.96421875 -64.83203125 85.4609375 C-53.18802513 92.94501321 -40.84894149 95.90332307 -27.10546875 93.4921875 C-21.64614286 92.06801553 -17.85291231 90.14188074 -14 86 C-11.81905964 81.53898562 -11.23481512 76.89522121 -12 72 C-16.46246361 62.51726483 -26.50258463 59.85869725 -35.6953125 56.53515625 C-37.83943638 55.76800606 -39.98505541 55.00528846 -42.13183594 54.24560547 C-54.80705528 49.74387903 -67.03976066 45.36655914 -74.09375 33.09765625 C-77.4388702 25.52467579 -76.9726139 16.75075827 -74.03125 9.125 C-70.39051856 1.62288673 -65.27940247 -3.05699033 -58 -7 C-57.2575 -7.41507813 -56.515 -7.83015625 -55.75 -8.2578125 C-36.89768816 -16.89845543 -16.64978552 -9.56019943 0 0 Z " fill="#4B4D52" transform="translate(1229,523)"/>
<path d="M0 0 C7.71024903 5.71384526 12.13389016 13.30086447 14.1875 22.62109375 C15.1311115 32.94304808 13.00844179 43.17999939 6.7578125 51.53125 C1.46193607 57.49861315 -5.00580382 60.01870418 -12.8359375 61 C-21.1445646 61.33106355 -27.47761243 59.18261822 -34.5625 54.99609375 C-42.58416097 46.52878495 -45.22788103 37.27626147 -44.9921875 25.83203125 C-44.46978305 16.49689081 -41.8034659 9.35896807 -34.88671875 2.79296875 C-25.10853958 -5.02957458 -10.94420612 -6.35411967 0 0 Z " fill="#000001" transform="translate(732.8125,546.37890625)"/>
<path d="M0 0 C6.6005437 5.4139291 11.24370937 12.04039967 12.7734375 20.5234375 C13.63725871 32.13874775 12.5121901 42.45157136 4.80859375 51.578125 C-2.66670663 58.72342172 -10.56763047 59.89414217 -20.546875 59.80078125 C-28.4037289 59.20859799 -34.77312887 56.54951446 -40.68614197 51.38269043 C-43.47895933 48.0118227 -43.31695136 44.44483728 -43.33984375 40.21484375 C-43.3663652 39.32989731 -43.39288666 38.44495087 -43.42021179 37.53318787 C-43.46735603 35.66855051 -43.49745312 33.80341296 -43.51147461 31.93823242 C-43.53897106 29.09539154 -43.63567069 26.26085574 -43.74023438 23.41992188 C-43.77759757 21.60164322 -43.81093446 19.78327646 -43.83984375 17.96484375 C-43.87072586 17.12297012 -43.90160797 16.2810965 -43.9334259 15.41371155 C-43.91859801 9.81134052 -42.65245258 6.94560839 -38.77461243 2.89289856 C-36.69645881 1.05448857 -34.62506485 -0.20451598 -32.1015625 -1.3515625 C-31.27398437 -1.74085938 -30.44640625 -2.13015625 -29.59375 -2.53125 C-20.20711101 -6.2797098 -8.50895492 -5.64278063 0 0 Z " fill="#000001" transform="translate(379.2265625,547.4765625)"/>
<path d="M0 0 C0.33 0 0.66 0 1 0 C1 20.79 1 41.58 1 63 C26.74 63 52.48 63 79 63 C79 69.6 79 76.2 79 83 C45.34 83 11.68 83 -23 83 C-23 76.4 -23 69.8 -23 63 C-15.41 63 -7.82 63 0 63 C0 42.21 0 21.42 0 0 Z " fill="#1E41AE" transform="translate(892,556)"/>
<path d="M0 0 C5.78604878 4.87724531 9.68347177 10.48481804 11 18 C11 19.65 11 21.3 11 23 C-5.83 23 -22.66 23 -40 23 C-38.82735595 13.6188476 -37.16343464 8.26800531 -30 2 C-29.401875 1.443125 -28.80375 0.88625 -28.1875 0.3125 C-20.02765387 -4.58340768 -8.2673375 -4.60922356 0 0 Z " fill="#000103" transform="translate(502,544)"/>
<path d="M0 0 C3.13761436 1.09742466 6.19561588 2.36643818 9.26171875 3.6484375 C10.1578891 4.01710938 11.05405945 4.38578125 11.97738647 4.765625 C14.88332423 5.9626393 17.78551647 7.16843434 20.6875 8.375 C23.67601125 9.61162324 26.66514255 10.84673848 29.65434265 12.08169556 C31.63750509 12.90120533 33.62034516 13.72149565 35.6028595 14.54257202 C41.31951401 16.90700712 47.04964358 19.23070305 52.8046875 21.5 C54.06685944 22.00069713 55.32898721 22.50150563 56.59106445 23.00244141 C58.84638607 23.89416502 61.10518396 24.7771638 63.36791992 25.64990234 C64.35123291 26.04129395 65.3345459 26.43268555 66.34765625 26.8359375 C67.18304932 27.16126465 68.01844238 27.4865918 68.87915039 27.82177734 C71.37759602 29.20977074 72.54447975 30.55477316 74 33 C73.9225546 36.17526139 73.51875955 37.49571932 71.23141479 39.71922302 C69 41 69 41 66.7649231 40.77308655 C65.97125336 40.49484543 65.17758362 40.21660431 64.35986328 39.92993164 C63.47864807 39.62725372 62.59743286 39.32457581 61.68951416 39.01272583 C60.35820465 38.51142654 60.35820465 38.51142654 59 38 C58.20092224 37.69971893 57.40184448 37.39943787 56.57855225 37.09005737 C54.11918057 36.13172953 51.67994738 35.1330823 49.2421875 34.12109375 C48.34342896 33.75247223 47.44467041 33.38385071 46.51867676 33.00405884 C43.63542711 31.82005581 40.75507201 30.62920948 37.875 29.4375 C35.89414614 28.6207621 33.91318871 27.80427534 31.93212891 26.98803711 C28.99410358 25.77695621 26.05641351 24.56509249 23.11972046 23.3507843 C18.31301531 21.36324383 13.50294678 19.38535427 8.68014526 17.43717957 C5.90948607 16.3178885 3.14272522 15.18902277 0.375 14.0625 C-0.58164551 13.68085693 -1.53829102 13.29921387 -2.52392578 12.90600586 C-3.3745459 12.55675049 -4.22516602 12.20749512 -5.1015625 11.84765625 C-5.81650879 11.55898682 -6.53145508 11.27031738 -7.26806641 10.97290039 C-9 10 -9 10 -11 7 C-10.84479131 3.89582618 -10.40115522 2.44572802 -8.3125 0.125 C-5.08006397 -1.44753645 -3.50965016 -0.81584958 0 0 Z " fill="#F9D800" transform="translate(767,348)"/>
<path d="M0 0 C1.8125 1.125 1.8125 1.125 3 3 C3.5625 5.9375 3.5625 5.9375 3 9 C-2.18632754 13.24017319 -8.38724839 15.36916318 -14.5625 17.8125 C-16.33839961 18.52429933 -18.11428918 19.23612402 -19.88987732 19.94869995 C-21.1682901 20.4612697 -22.44707866 20.97290304 -23.72621155 21.4836731 C-29.04813213 23.61005205 -34.35351916 25.77548859 -39.65625 27.94921875 C-42.14046209 28.96524834 -44.62486693 29.98080503 -47.10934448 30.9961853 C-48.73059601 31.65959049 -50.35131393 32.32430138 -51.97146606 32.99038696 C-75.31915512 42.58159433 -75.31915512 42.58159433 -79.20141602 41.23828125 C-81 40 -81 40 -81.9375 37.125 C-82.01189662 33.40516924 -81.49730925 32.65772957 -79 30 C-76.60375977 28.72998047 -76.60375977 28.72998047 -73.69140625 27.6171875 C-72.57241943 27.18051758 -71.45343262 26.74384766 -70.30053711 26.29394531 C-69.06698486 25.82569336 -67.83343262 25.35744141 -66.5625 24.875 C-63.86492145 23.83131826 -61.17079522 22.77884633 -58.4765625 21.7265625 C-57.74684738 21.4428479 -57.01713226 21.1591333 -56.26530457 20.86682129 C-49.94165788 18.39743289 -43.66750723 15.81535161 -37.3984375 13.2109375 C-35.91515205 12.59634171 -35.91515205 12.59634171 -34.40190125 11.96932983 C-30.4236385 10.32077673 -26.44550377 8.67212305 -22.47341919 7.00872803 C-19.67169461 5.83643297 -16.86565905 4.67506156 -14.05859375 3.515625 C-13.21706757 3.15995453 -12.37554138 2.80428406 -11.5085144 2.43783569 C-4.13952812 -0.58649486 -4.13952812 -0.58649486 0 0 Z " fill="#FAD900" transform="translate(1068,347)"/>
<path d="M0 0 C2 2 2 2 2.625 4.8125 C2 8 2 8 -1.03515625 10.23828125 C-7.74090578 14.19327768 -14.96158577 17.2091592 -22.0625 20.375 C-24.19997668 21.33395894 -26.33669574 22.29457888 -28.47299194 23.25616455 C-29.88634449 23.89129113 -31.30075218 24.52407502 -32.71621704 25.15447998 C-36.22727081 26.72342925 -39.7079401 28.33224911 -43.15576172 30.03613281 C-43.82337021 30.36199371 -44.4909787 30.68785461 -45.17881775 31.02359009 C-47.00116343 31.91771902 -48.81617334 32.82675546 -50.63061523 33.73681641 C-54.35892856 35.13456245 -57.05024298 35.38812467 -61 35 C-63 33 -63 33 -63.125 29.375 C-63.08375 28.26125 -63.0425 27.1475 -63 26 C-52.57210286 20.26797153 -41.98330381 15.11144606 -31.125 10.25 C-29.67947934 9.59811765 -28.23416618 8.94577495 -26.7890625 8.29296875 C-24.05563521 7.05896219 -21.3196829 5.83087448 -18.58129883 4.60791016 C-16.41866688 3.63694458 -14.26069095 2.65537661 -12.11206055 1.65380859 C-11.31840088 1.28594238 -10.52474121 0.91807617 -9.70703125 0.5390625 C-9.05710205 0.23178223 -8.40717285 -0.07549805 -7.73754883 -0.39208984 C-4.91111974 -1.38096274 -2.77207479 -0.94656212 0 0 Z " fill="#FAD900" transform="translate(838,447)"/>
<path d="M0 0 C3.10766602 1.23999023 3.10766602 1.23999023 6.25390625 2.80859375 C7.42848389 3.38641602 8.60306152 3.96423828 9.81323242 4.55957031 C11.06301257 5.18549839 12.31276794 5.81147593 13.5625 6.4375 C16.15130941 7.71700617 18.74351313 8.98955599 21.3359375 10.26171875 C21.98195419 10.57976471 22.62797089 10.89781067 23.29356384 11.22549438 C30.27456869 14.65062316 37.35838935 17.84100222 44.47290039 20.97827148 C45.31071045 21.35153564 46.14852051 21.7247998 47.01171875 22.109375 C47.73834717 22.42874023 48.46497559 22.74810547 49.21362305 23.07714844 C51 24 51 24 53 26 C53.25 29.5 53.25 29.5 53 33 C51 35 51 35 47.90209961 35.35351562 C43.14548123 34.9225838 39.8034117 33.44058494 35.56640625 31.34375 C34.3730088 30.77291687 34.3730088 30.77291687 33.15550232 30.19055176 C30.61819133 28.97298728 28.09048345 27.73679481 25.5625 26.5 C23.89967471 25.69930238 22.23626726 24.89981257 20.57226562 24.1015625 C15.70256805 21.75916874 10.84983921 19.38317412 6 17 C5.21341003 16.61537598 4.42682007 16.23075195 3.61639404 15.83447266 C1.37605512 14.73804317 -0.86129824 13.63577253 -3.09765625 12.53125 C-3.76856796 12.20314331 -4.43947968 11.87503662 -5.13072205 11.5369873 C-7.7800693 10.21970742 -9.89254662 9.10745338 -12 7 C-11.84418468 3.96160126 -11.37644136 2.43435542 -9.375 0.125 C-5.94907328 -1.4978074 -3.68116214 -0.73363888 0 0 Z " fill="#F9D800" transform="translate(998,447)"/>
<path d="M0 0 C1.6317794 -0.01902626 1.6317794 -0.01902626 3.29652405 -0.03843689 C5.04357887 -0.03403343 5.04357887 -0.03403343 6.82592773 -0.02954102 C8.03014877 -0.03478287 9.23436981 -0.04002472 10.4750824 -0.04542542 C13.01772287 -0.05184214 15.56039305 -0.05051319 18.10302734 -0.04199219 C21.99882592 -0.03347066 25.89316416 -0.06227017 29.78881836 -0.09399414 C32.25952104 -0.09560591 34.73022633 -0.09502909 37.20092773 -0.09204102 C38.95101891 -0.10889198 38.95101891 -0.10889198 40.73646545 -0.12608337 C41.82116623 -0.11670242 42.905867 -0.10732147 44.0234375 -0.09765625 C44.97654312 -0.09749008 45.92964874 -0.09732391 46.91163635 -0.09715271 C50.20862762 0.55461019 51.42257932 1.76664481 53.44702148 4.40405273 C53.44702148 7.52905273 53.44702148 7.52905273 52.44702148 10.40405273 C49.36826371 12.47202474 46.76807753 12.66480718 43.11523438 12.69458008 C41.51821434 12.71371964 41.51821434 12.71371964 39.88893127 12.73324585 C38.17165077 12.73658432 38.17165077 12.73658432 36.41967773 12.73999023 C35.23860947 12.74664703 34.0575412 12.75330383 32.84068298 12.76016235 C30.34334877 12.77028583 27.84598752 12.77497947 25.34863281 12.7746582 C21.52746063 12.7790322 17.70744251 12.81535968 13.88647461 12.85327148 C11.46004627 12.85913946 9.03361244 12.86310898 6.60717773 12.86499023 C5.4643483 12.87936127 4.32151886 12.8937323 3.14405823 12.90853882 C-4.76193507 12.86298145 -4.76193507 12.86298145 -8.77392578 10.53540039 C-10.55297852 8.40405273 -10.55297852 8.40405273 -11.17797852 5.84155273 C-10.55297852 3.40405273 -10.55297852 3.40405273 -8.36097717 1.77696228 C-5.29076618 0.27584974 -3.39430949 0.01922568 0 0 Z " fill="#FCD900" transform="translate(786.552978515625,410.595947265625)"/>
<path d="M0 0 C1.59702003 -0.01418472 1.59702003 -0.01418472 3.2263031 -0.02865601 C4.37115677 -0.02258331 5.51601044 -0.01651062 6.69555664 -0.01025391 C8.46715904 -0.01455917 8.46715904 -0.01455917 10.27455139 -0.01895142 C12.77190632 -0.02099262 15.26927722 -0.01545888 17.76660156 -0.00292969 C21.58768539 0.01310793 25.4077091 -0.00277016 29.22875977 -0.02197266 C31.65519439 -0.01998996 34.08162836 -0.01614573 36.50805664 -0.01025391 C37.65088608 -0.0163266 38.79371552 -0.02239929 39.97117615 -0.02865601 C41.03900833 -0.01919952 42.10684052 -0.00974304 43.20703125 0 C44.14316757 0.00238678 45.07930389 0.00477356 46.04380798 0.00723267 C49.15999853 0.45956976 51.08920367 1.62509223 53.66821289 3.38818359 C53.41821289 6.76318359 53.41821289 6.76318359 52.66821289 10.38818359 C49.63714416 12.53034767 46.96085966 12.64079974 43.32055664 12.64697266 C42.25264893 12.65327698 41.18474121 12.6595813 40.08447266 12.66607666 C38.93648193 12.6620282 37.78849121 12.65797974 36.60571289 12.65380859 C35.42227295 12.65572205 34.23883301 12.6576355 33.01953125 12.65960693 C30.51798286 12.66096764 28.01642739 12.65727922 25.51489258 12.64892578 C21.6830257 12.63822496 17.85162767 12.64882529 14.01977539 12.66162109 C11.59008685 12.66029948 9.16039861 12.65773705 6.73071289 12.65380859 C5.00872681 12.65988129 5.00872681 12.65988129 3.25195312 12.66607666 C2.18404541 12.65977234 1.1161377 12.65346802 0.01586914 12.64697266 C-0.92248779 12.64538147 -1.86084473 12.64379028 -2.82763672 12.64215088 C-5.44235685 12.37696977 -7.08490447 11.71522087 -9.33178711 10.38818359 C-9.58178711 7.07568359 -9.58178711 7.07568359 -9.33178711 3.38818359 C-6.38887691 0.40360817 -4.10255333 0.0104688 0 0 Z " fill="#FBD800" transform="translate(996.331787109375,410.61181640625)"/>
<path d="M0 0 C8.25 0 16.5 0 25 0 C25 18.81 25 37.62 25 57 C24.67 57 24.34 57 24 57 C24 38.52 24 20.04 24 1 C16.74 1 9.48 1 2 1 C2 50.5 2 100 2 151 C8.93 151 15.86 151 23 151 C23 148.03 23 145.06 23 142 C23.33 142 23.66 142 24 142 C24 145.63 24 149.26 24 153 C16.08 153 8.16 153 0 153 C0 102.51 0 52.02 0 0 Z " fill="#005DE0" transform="translate(310,475)"/>
<path d="M0 0 C7.77784995 -0.07593214 15.55560468 -0.12855012 23.33374023 -0.16479492 C25.98091199 -0.1799012 28.62805864 -0.2003873 31.27514648 -0.22631836 C35.07542101 -0.26261991 38.87536526 -0.27970803 42.67578125 -0.29296875 C44.45714226 -0.31619453 44.45714226 -0.31619453 46.27449036 -0.33988953 C47.37540512 -0.34011612 48.47631989 -0.34034271 49.6105957 -0.34057617 C51.06620659 -0.35056892 51.06620659 -0.35056892 52.55122375 -0.36076355 C55.38720847 0.05704511 56.25648828 0.78349477 58 3 C55.43289484 4.28355258 53.68804033 4.0818427 50.81591797 4.02172852 C49.73494843 4.00163223 48.65397888 3.98153595 47.54025269 3.96083069 C46.36939117 3.93379562 45.19852966 3.90676056 43.9921875 3.87890625 C42.79643097 3.85529526 41.60067444 3.83168427 40.36868286 3.80735779 C36.53733846 3.73058708 32.70618941 3.64662032 28.875 3.5625 C26.28256175 3.50929275 23.69011387 3.45655228 21.09765625 3.40429688 C14.73164912 3.27495381 8.36578787 3.13969726 2 3 C2 2.34 2 1.68 2 1 C1.34 0.67 0.68 0.34 0 0 Z " fill="#E8CB00" transform="translate(781,411)"/>
<path d="M0 0 C1.071362 -0.00637985 2.142724 -0.0127597 3.24655151 -0.01933289 C4.41316315 -0.02044571 5.57977478 -0.02155853 6.78173828 -0.02270508 C8.56682297 -0.02769768 8.56682297 -0.02769768 10.38796997 -0.03279114 C12.91163749 -0.03786588 15.43531176 -0.0401993 17.95898438 -0.04003906 C21.8284 -0.04222298 25.69752952 -0.06036614 29.56689453 -0.0793457 C32.01350813 -0.08227997 34.4601231 -0.08426454 36.90673828 -0.08520508 C38.65058304 -0.09598335 38.65058304 -0.09598335 40.42965698 -0.10697937 C41.5073233 -0.10390274 42.58498962 -0.10082611 43.6953125 -0.09765625 C44.64493866 -0.09908127 45.59456482 -0.10050629 46.57296753 -0.10197449 C48.97705078 0.14526367 48.97705078 0.14526367 51.97705078 2.14526367 C50.28680308 3.83551137 48.16167731 3.28141805 45.84643555 3.29052734 C44.20451988 3.30009712 44.20451988 3.30009712 42.5294342 3.30986023 C41.33781174 3.31097305 40.14618927 3.31208588 38.91845703 3.31323242 C37.70383286 3.31656082 36.48920868 3.31988922 35.23777771 3.32331848 C32.66283549 3.3283929 30.08788667 3.33072665 27.51293945 3.33056641 C23.56011181 3.3327523 19.60756333 3.35090129 15.65478516 3.36987305 C13.15934341 3.37280689 10.66390033 3.37479175 8.16845703 3.37573242 C6.9788588 3.38291794 5.78926056 3.39010345 4.56361389 3.39750671 C3.46585129 3.39443008 2.36808868 3.39135345 1.23706055 3.38818359 C0.26744888 3.38960861 -0.70216278 3.39103363 -1.70115662 3.39250183 C-4.02294922 3.14526367 -4.02294922 3.14526367 -6.02294922 1.14526367 C-4.3478304 -0.52985514 -2.29902974 0.00924379 0 0 Z " fill="#E9CD00" transform="translate(996.02294921875,410.854736328125)"/>
<path d="M0 0 C2.80486735 2.64904139 4.81570036 4.55680324 6.3125 8.15625 C9.60735504 11.64266638 10.63218087 11.44780757 15.296875 11.5859375 C17.78192502 11.54607039 20.26662429 11.47453921 22.75 11.375 C24.65458984 11.33439453 24.65458984 11.33439453 26.59765625 11.29296875 C29.73347906 11.2222359 32.86588663 11.12356492 36 11 C34.68 9.35 33.36 7.7 32 6 C32.33 5.34 32.66 4.68 33 4 C34.16956591 5.47687532 35.33558146 6.95656293 36.5 8.4375 C37.47453125 9.67306641 37.47453125 9.67306641 38.46875 10.93359375 C40 13 40 13 40 14 C35.58974714 14.29881838 31.18496539 14.5152596 26.76757812 14.65917969 C25.2691384 14.71919472 23.77139206 14.80085543 22.27539062 14.90527344 C17.28222645 15.2448086 12.86149495 15.30487298 8 14 C4.26225805 10.47739854 1.97729617 6.72207375 0 2 C0 1.34 0 0.68 0 0 Z " fill="#0055D3" transform="translate(622,614)"/>
<path d="M0 0 C0 0.33 0 0.66 0 1 C-6.06696699 1.77040851 -11.88514973 2.09706112 -18 2 C-18.33 2.66 -18.66 3.32 -19 4 C-21.31 4 -23.62 4 -26 4 C-26 3.67 -26 3.34 -26 3 C-28.31 2.67 -30.62 2.34 -33 2 C-33 1.67 -33 1.34 -33 1 C-21.97636372 0.08949317 -11.05694276 -0.1139891 0 0 Z " fill="#0056DD" transform="translate(962,436)"/>
<path d="M0 0 C-0.556875 0.268125 -1.11375 0.53625 -1.6875 0.8125 C-7.89291465 3.99906428 -12.28846125 7.90471601 -17 13 C-17.9954854 14.00449431 -18.99384633 15.00619177 -20 16 C-17.60465884 8.09537419 -12.0392279 3.61235393 -5.05078125 -0.25 C-3 -1 -3 -1 0 0 Z " fill="#52555A" transform="translate(1176,516)"/>
</svg>
